<?xml version="1.0" encoding="UTF-8"?>
<svg width="48px" height="48px" viewBox="0 0 48 48" version="1.1" xmlns="http://www.w3.org/2000/svg" xmlns:xlink="http://www.w3.org/1999/xlink">
    <!-- Generator: Sketch 51.2 (57519) - http://www.bohemiancoding.com/sketch -->
    <title>Group</title>
    <desc>Created with Sketch.</desc>
    <defs></defs>
    <g id="Graphic" stroke="none" stroke-width="1" fill="none" fill-rule="evenodd" stroke-linejoin="round">
        <g id="Desktop-HD-Copy-3" transform="translate(-207.000000, -3015.000000)" stroke="#1BDEA0" stroke-width="2">
            <g id="Group" transform="translate(208.000000, 3016.000000)">
                <path d="M15.9376,21.125 L6.9656,30.309" id="Stroke-6016" stroke-linecap="round"></path>
                <path d="M30.0352,6.6944 L20.0732,16.8864" id="Stroke-6017" stroke-linecap="round"></path>
                <path d="M8,33 C8,35.208 6.206,37 4,37 C1.79,37 0,35.208 0,33 C0,30.792 1.79,29 4,29 C6.206,29 8,30.792 8,33 L8,33 Z" id="Stroke-6018" stroke-linecap="round"></path>
                <path d="M37,4 C37,6.208 35.206,8 33,8 C30.79,8 29,6.208 29,4 C29,1.792 30.79,0 33,0 C35.206,0 37,1.792 37,4 L37,4 Z" id="Stroke-6019" stroke-linecap="round"></path>
                <path d="M21.0468,18.7636 C24.5348,15.7916 29.0588,13.9996 34.0008,13.9996 L42.0008,13.9996" id="Stroke-6020" stroke-linecap="round"></path>
                <path d="M14,42 L14,34 C14,29.54 15.498,25.328 17.968,22" id="Stroke-6021" stroke-linecap="round"></path>
                <path d="M21,19 C21,20.66 19.656,22 18,22 C16.344,22 15,20.66 15,19 C15,17.344 16.344,16 18,16 C19.656,16 21,17.344 21,19 L21,19 Z" id="Stroke-6022" stroke-linecap="round"></path>
                <polygon id="Stroke-6023" points="16 46 12 46 12 42 16 42"></polygon>
                <polygon id="Stroke-6024" points="46 16 42 16 42 12 46 12"></polygon>
            </g>
        </g>
    </g>
</svg>