<?xml version="1.0" encoding="UTF-8"?>
<svg width="68px" height="68px" viewBox="0 0 68 68" version="1.1" xmlns="http://www.w3.org/2000/svg" xmlns:xlink="http://www.w3.org/1999/xlink">
    <!-- Generator: Sketch 50.2 (55047) - http://www.bohemiancoding.com/sketch -->
    <title>developers</title>
    <desc>Created with Sketch.</desc>
    <defs></defs>
    <g id="Graphic" stroke="none" stroke-width="1" fill="none" fill-rule="evenodd">
        <g id="developers">
            <circle id="Oval-2-Copy-4" fill="#FFFFFF" cx="34" cy="34" r="34"></circle>
            <g id="Group" transform="translate(16.000000, 19.000000)" stroke="#181818" stroke-linecap="round" stroke-linejoin="round" stroke-width="2.25">
                <path d="M35.26905,25.1738316 C35.26905,26.8588842 33.92655,28.2264632 32.26905,28.2264632 L3.76905,28.2264632 C2.11305,28.2264632 0.76905,26.8588842 0.76905,25.1738316 L0.76905,3.80541053 C0.76905,2.12035789 2.11305,0.752778947 3.76905,0.752778947 L32.26905,0.752778947 C33.92655,0.752778947 35.26905,2.12035789 35.26905,3.80541053 L35.26905,25.1738316 L35.26905,25.1738316 Z" id="Stroke-3729"></path>
                <path d="M0.76905,8.38435789 L35.26905,8.38435789" id="Stroke-3730"></path>
                <path d="M6.76905,4.56856842 C6.76905,4.98983158 6.43305,5.33172632 6.01905,5.33172632 C5.60505,5.33172632 5.26905,4.98983158 5.26905,4.56856842 C5.26905,4.14730526 5.60505,3.80541053 6.01905,3.80541053 C6.43305,3.80541053 6.76905,4.14730526 6.76905,4.56856842 L6.76905,4.56856842 Z" id="Stroke-3731"></path>
                <path d="M11.26905,4.56856842 C11.26905,4.98983158 10.93305,5.33172632 10.51905,5.33172632 C10.10505,5.33172632 9.76905,4.98983158 9.76905,4.56856842 C9.76905,4.14730526 10.10505,3.80541053 10.51905,3.80541053 C10.93305,3.80541053 11.26905,4.14730526 11.26905,4.56856842 L11.26905,4.56856842 Z" id="Stroke-3732"></path>
                <path d="M15.76905,4.56856842 C15.76905,4.98983158 15.43305,5.33172632 15.01905,5.33172632 C14.60505,5.33172632 14.26905,4.98983158 14.26905,4.56856842 C14.26905,4.14730526 14.60505,3.80541053 15.01905,3.80541053 C15.43305,3.80541053 15.76905,4.14730526 15.76905,4.56856842 L15.76905,4.56856842 Z" id="Stroke-3733"></path>
                <polyline id="Stroke-3734" points="8.26905 14.4896211 12.01905 18.3054105 8.26905 22.1212"></polyline>
                <path d="M17.26905,19.0685684 L23.26905,19.0685684" id="Stroke-3735"></path>
            </g>
        </g>
    </g>
</svg>