<?xml version="1.0" encoding="UTF-8"?>
<svg width="68px" height="68px" viewBox="0 0 68 68" version="1.1" xmlns="http://www.w3.org/2000/svg" xmlns:xlink="http://www.w3.org/1999/xlink">
    <!-- Generator: Sketch 50.2 (55047) - http://www.bohemiancoding.com/sketch -->
    <title>product</title>
    <desc>Created with Sketch.</desc>
    <defs></defs>
    <g id="Graphic" stroke="none" stroke-width="1" fill="none" fill-rule="evenodd">
        <g id="product">
            <circle id="Oval-2-Copy-3" fill="#FFFFFF" cx="34" cy="34" r="34"></circle>
            <g id="Group" transform="translate(16.000000, 16.000000)" stroke="#181818" stroke-linejoin="round" stroke-width="2.25">
                <path d="M26.2485,15.75 C26.2485,19.065 23.562,21.75 20.2485,21.75 C16.935,21.75 14.2485,19.065 14.2485,15.75 C14.2485,12.4365 16.935,9.75 20.2485,9.75 C23.562,9.75 26.2485,12.4365 26.2485,15.75 L26.2485,15.75 Z" id="Stroke-2723"></path>
                <path d="M5.25,8.25 C5.25,9.4935 4.2435,10.5 3,10.5 C1.7565,10.5 0.75,9.4935 0.75,8.25 C0.75,7.008 1.7565,6 3,6 C4.2435,6 5.25,7.008 5.25,8.25 L5.25,8.25 Z" id="Stroke-2724"></path>
                <path d="M35.25,3 C35.25,4.242 34.2435,5.25 33,5.25 C31.7565,5.25 30.75,4.242 30.75,3 C30.75,1.7565 31.7565,0.75 33,0.75 C34.2435,0.75 35.25,1.7565 35.25,3 L35.25,3 Z" id="Stroke-2725"></path>
                <path d="M5.25,33 C5.25,34.2435 4.2435,35.25 3,35.25 C1.7565,35.25 0.75,34.2435 0.75,33 C0.75,31.758 1.7565,30.75 3,30.75 C4.2435,30.75 5.25,31.758 5.25,33 L5.25,33 Z" id="Stroke-2726"></path>
                <path d="M22.4985,33 C22.4985,34.2435 21.492,35.25 20.2485,35.25 C19.005,35.25 17.9985,34.2435 17.9985,33 C17.9985,31.758 19.005,30.75 20.2485,30.75 C21.492,30.75 22.4985,31.758 22.4985,33 L22.4985,33 Z" id="Stroke-2727"></path>
                <path d="M4.5894,31.40925 L16.0194,20.00625" id="Stroke-2728"></path>
                <path d="M24.4995,11.5152 L31.407,4.5927" id="Stroke-2729"></path>
                <path d="M5.0244,9.2256 L14.7339,13.3866" id="Stroke-2730"></path>
                <path d="M30.84225,21.04395 L25.41675,18.80145" id="Stroke-2731"></path>
                <path d="M20.2485,30.75 L20.2485,21.75" id="Stroke-2732"></path>
                <path d="M35.25,21.75 C35.25,22.992 34.2435,24 33,24 C31.758,24 30.75,22.992 30.75,21.75 C30.75,20.508 31.758,19.5 33,19.5 C34.2435,19.5 35.25,20.508 35.25,21.75 L35.25,21.75 Z" id="Stroke-2733"></path>
            </g>
        </g>
    </g>
</svg>