<?xml version="1.0" encoding="UTF-8"?>
<svg width="51px" height="53px" viewBox="0 0 51 53" version="1.1" xmlns="http://www.w3.org/2000/svg" xmlns:xlink="http://www.w3.org/1999/xlink">
    <!-- Generator: Sketch 51.2 (57519) - http://www.bohemiancoding.com/sketch -->
    <title>Group Copy 4</title>
    <desc>Created with Sketch.</desc>
    <defs></defs>
    <g id="Graphic" stroke="none" stroke-width="1" fill="none" fill-rule="evenodd" stroke-linecap="round" stroke-linejoin="round">
        <g id="Desktop-HD-Copy-3" transform="translate(-738.000000, -3291.000000)" stroke="#1BDEA0" stroke-width="2">
            <g id="Group-Copy-4" transform="translate(739.000000, 3292.000000)">
                <path d="M39,24.7692308 C39,16.6116923 32.504,10 24.5,10 C16.4911667,10 10,16.6116923 10,24.7692308 C10,31.6467692 14.6230833,37.4116923 20.875,39.0535385 L20.875,42 L28.125,42 L28.125,39.0535385 C34.3720833,37.4116923 39,31.6467692 39,24.7692308 L39,24.7692308 Z" id="Stroke-6627"></path>
                <path d="M25,51 L23,51" id="Stroke-6628"></path>
                <path d="M28,46 L21,46" id="Stroke-6629"></path>
                <path d="M25,0 L25,5" id="Stroke-6630"></path>
                <path d="M49,25 L44,25" id="Stroke-6631"></path>
                <path d="M0,25 L5,25" id="Stroke-6632"></path>
                <path d="M6,6 L12,12" id="Stroke-6633"></path>
                <path d="M44,6 L38,12" id="Stroke-6634"></path>
            </g>
        </g>
    </g>
</svg>